<mxfile host="Electron" agent="Mozilla/5.0 (X11; Linux x86_64) AppleWebKit/537.36 (KHTML, like Gecko) draw.io/26.1.1 Chrome/132.0.6834.210 Electron/34.3.3 Safari/537.36" version="26.1.1">
  <diagram id="Q8UWIDvTnTWvmisHTtFj" name="Page-1">
    <mxGraphModel dx="2022" dy="652" grid="1" gridSize="10" guides="1" tooltips="1" connect="1" arrows="1" fold="1" page="1" pageScale="1" pageWidth="827" pageHeight="1169" math="0" shadow="0">
      <root>
        <mxCell id="0" />
        <mxCell id="1" parent="0" />
        <mxCell id="xEZ2nPFFrHSUSIxC7Ztz-3" value="" style="rounded=0;whiteSpace=wrap;html=1;strokeColor=none;" vertex="1" parent="1">
          <mxGeometry x="-10" y="150" width="600" height="570" as="geometry" />
        </mxCell>
        <mxCell id="rMWVGPfARK4X7Arb33Px-16" value="&lt;font style=&quot;font-size: 13px;&quot;&gt;Host&amp;nbsp;&lt;/font&gt;&lt;div&gt;&lt;font style=&quot;font-size: 13px;&quot;&gt;C/C++ code&lt;/font&gt;&lt;/div&gt;" style="shape=note;whiteSpace=wrap;html=1;backgroundOutline=1;darkOpacity=0.05;size=7;fillColor=#fff2cc;strokeColor=#d6b656;fontSize=14;" parent="1" vertex="1">
          <mxGeometry x="135" y="640" width="70" height="70" as="geometry" />
        </mxCell>
        <mxCell id="d4Aca1u6HOUoMToGAWtU-49" value="" style="rounded=0;whiteSpace=wrap;html=1;fillColor=#f5f5f5;strokeColor=none;fontColor=#333333;" parent="1" vertex="1">
          <mxGeometry x="396.56" y="155" width="183.44" height="190" as="geometry" />
        </mxCell>
        <mxCell id="d4Aca1u6HOUoMToGAWtU-4" value="&lt;span style=&quot;font-size: 13px;&quot;&gt;Accelerator C/C++ code&lt;br&gt;&lt;/span&gt;" style="shape=note;whiteSpace=wrap;html=1;backgroundOutline=1;darkOpacity=0.05;size=7;fillColor=#fff2cc;strokeColor=#d6b656;fontSize=14;" parent="1" vertex="1">
          <mxGeometry x="285" y="640" width="70" height="70" as="geometry" />
        </mxCell>
        <mxCell id="wPGymhWY9zPTNBUGQzJ1-2" value="" style="shape=cube;whiteSpace=wrap;html=1;boundedLbl=1;backgroundOutline=1;darkOpacity=0.05;darkOpacity2=0.1;size=5;fillColor=#d5e8d4;strokeColor=#82b366;fontSize=14;" parent="1" vertex="1">
          <mxGeometry y="250" width="380" height="370" as="geometry" />
        </mxCell>
        <mxCell id="wPGymhWY9zPTNBUGQzJ1-1" value="C/C++ Application Code" style="shape=note;whiteSpace=wrap;html=1;backgroundOutline=1;darkOpacity=0.05;size=7;fillColor=#fff2cc;strokeColor=#d6b656;fontSize=14;" parent="1" vertex="1">
          <mxGeometry x="152.5" y="160" width="75" height="67.5" as="geometry" />
        </mxCell>
        <mxCell id="uZdSeVqPh_KYlumVynNW-2" style="edgeStyle=orthogonalEdgeStyle;rounded=0;orthogonalLoop=1;jettySize=auto;html=1;exitX=0;exitY=0;exitDx=240;exitDy=25;exitPerimeter=0;entryX=0;entryY=0.5;entryDx=0;entryDy=0;entryPerimeter=0;" parent="1" source="wPGymhWY9zPTNBUGQzJ1-4" target="rMWVGPfARK4X7Arb33Px-2" edge="1">
          <mxGeometry relative="1" as="geometry">
            <mxPoint x="400" y="485" as="targetPoint" />
          </mxGeometry>
        </mxCell>
        <mxCell id="wPGymhWY9zPTNBUGQzJ1-4" value="&lt;font style=&quot;font-size: 13px;&quot;&gt;Extended Task Graph (ETG) Generator&lt;/font&gt;" style="shape=cube;whiteSpace=wrap;html=1;boundedLbl=1;backgroundOutline=1;darkOpacity=0.05;darkOpacity2=0.1;size=10;fillColor=#dae8fc;strokeColor=#6c8ebf;fontSize=13;" parent="1" vertex="1">
          <mxGeometry x="124.06" y="460" width="240" height="40" as="geometry" />
        </mxCell>
        <mxCell id="wPGymhWY9zPTNBUGQzJ1-6" value="Clang Frontend (AST generation)" style="shape=cube;whiteSpace=wrap;html=1;boundedLbl=1;backgroundOutline=1;darkOpacity=0.05;darkOpacity2=0.1;size=0;fillColor=#f8cecc;strokeColor=#b85450;fontSize=14;" parent="1" vertex="1">
          <mxGeometry x="20" y="260" width="345" height="30" as="geometry" />
        </mxCell>
        <mxCell id="Z7GEWmz_fn6iVJh9K8Ma-1" value="&lt;p style=&quot;line-height: 100%;&quot;&gt;&lt;br&gt;&lt;/p&gt;" style="shape=cube;whiteSpace=wrap;html=1;boundedLbl=1;backgroundOutline=1;darkOpacity=0.05;darkOpacity2=0.1;size=10;fillColor=#dae8fc;strokeColor=#6c8ebf;fontSize=13;align=left;" parent="1" vertex="1">
          <mxGeometry x="125" y="310" width="240" height="140" as="geometry" />
        </mxCell>
        <mxCell id="rMWVGPfARK4X7Arb33Px-1" value="&lt;font style=&quot;font-size: 13px;&quot;&gt;Properties JSON&lt;/font&gt;" style="shape=note;whiteSpace=wrap;html=1;backgroundOutline=1;darkOpacity=0.05;size=7;fillColor=#e1d5e7;strokeColor=#9673a6;fontSize=14;" parent="1" vertex="1">
          <mxGeometry x="403.11" y="470" width="79.06" height="30" as="geometry" />
        </mxCell>
        <mxCell id="rMWVGPfARK4X7Arb33Px-2" value="&lt;font style=&quot;font-size: 13px;&quot;&gt;Graph Dotfile&lt;/font&gt;" style="shape=note;whiteSpace=wrap;html=1;backgroundOutline=1;darkOpacity=0.05;size=7;fillColor=#e1d5e7;strokeColor=#9673a6;fontSize=14;" parent="1" vertex="1">
          <mxGeometry x="403.11" y="430" width="79.06" height="30" as="geometry" />
        </mxCell>
        <mxCell id="rMWVGPfARK4X7Arb33Px-29" value="Target Properties" style="text;html=1;strokeColor=default;fillColor=none;align=center;verticalAlign=middle;whiteSpace=wrap;rounded=0;dashed=1;" parent="1" vertex="1">
          <mxGeometry x="400" y="574" width="80" height="30" as="geometry" />
        </mxCell>
        <mxCell id="d4Aca1u6HOUoMToGAWtU-2" value="Clava API (AST manipulation)" style="shape=cube;whiteSpace=wrap;html=1;boundedLbl=1;backgroundOutline=1;darkOpacity=0.05;darkOpacity2=0.1;size=0;fillColor=#d5e8d4;strokeColor=#82b366;fontSize=14;" parent="1" vertex="1">
          <mxGeometry x="20" y="310" width="90" height="300" as="geometry" />
        </mxCell>
        <mxCell id="d4Aca1u6HOUoMToGAWtU-9" style="edgeStyle=orthogonalEdgeStyle;rounded=0;orthogonalLoop=1;jettySize=auto;html=1;entryX=0.5;entryY=1;entryDx=0;entryDy=0;entryPerimeter=0;exitX=0.5;exitY=1;exitDx=0;exitDy=0;exitPerimeter=0;" parent="1" source="wPGymhWY9zPTNBUGQzJ1-1" edge="1">
          <mxGeometry relative="1" as="geometry">
            <mxPoint x="190" y="250" as="targetPoint" />
          </mxGeometry>
        </mxCell>
        <mxCell id="d4Aca1u6HOUoMToGAWtU-10" value="&lt;font style=&quot;font-size: 13px;&quot;&gt;Directive Design Space Exploration&lt;/font&gt;" style="shape=cube;whiteSpace=wrap;html=1;boundedLbl=1;backgroundOutline=1;darkOpacity=0.05;darkOpacity2=0.1;size=10;fillColor=#dae8fc;strokeColor=#6c8ebf;fontSize=11;" parent="1" vertex="1">
          <mxGeometry x="124.06" y="510" width="240" height="40" as="geometry" />
        </mxCell>
        <mxCell id="d4Aca1u6HOUoMToGAWtU-11" value="&lt;font style=&quot;font-size: 13px;&quot;&gt;Holistic Optimization and Partitioning Algorithm (Hoopa)&lt;/font&gt;" style="shape=cube;whiteSpace=wrap;html=1;boundedLbl=1;backgroundOutline=1;darkOpacity=0.05;darkOpacity2=0.1;size=10;fillColor=#dae8fc;strokeColor=#6c8ebf;fontSize=11;" parent="1" vertex="1">
          <mxGeometry x="124.06" y="560" width="240" height="50" as="geometry" />
        </mxCell>
        <mxCell id="d4Aca1u6HOUoMToGAWtU-13" style="edgeStyle=orthogonalEdgeStyle;rounded=0;orthogonalLoop=1;jettySize=auto;html=1;exitX=0;exitY=0;exitDx=125.00000000000001;exitDy=110;exitPerimeter=0;entryX=0.542;entryY=0.034;entryDx=0;entryDy=0;entryPerimeter=0;" parent="1" edge="1">
          <mxGeometry relative="1" as="geometry">
            <mxPoint x="254.06" y="450" as="sourcePoint" />
            <mxPoint x="254.13999999999987" y="461.36" as="targetPoint" />
          </mxGeometry>
        </mxCell>
        <mxCell id="d4Aca1u6HOUoMToGAWtU-14" style="edgeStyle=orthogonalEdgeStyle;rounded=0;orthogonalLoop=1;jettySize=auto;html=1;exitX=0;exitY=0;exitDx=125.00000000000001;exitDy=110;exitPerimeter=0;entryX=0.542;entryY=0.034;entryDx=0;entryDy=0;entryPerimeter=0;" parent="1" edge="1">
          <mxGeometry relative="1" as="geometry">
            <mxPoint x="254.06" y="500" as="sourcePoint" />
            <mxPoint x="254.06" y="511" as="targetPoint" />
          </mxGeometry>
        </mxCell>
        <mxCell id="d4Aca1u6HOUoMToGAWtU-16" style="edgeStyle=orthogonalEdgeStyle;rounded=0;orthogonalLoop=1;jettySize=auto;html=1;exitX=0;exitY=0;exitDx=125.00000000000001;exitDy=110;exitPerimeter=0;entryX=0.542;entryY=0.034;entryDx=0;entryDy=0;entryPerimeter=0;" parent="1" edge="1">
          <mxGeometry relative="1" as="geometry">
            <mxPoint x="254.06" y="550" as="sourcePoint" />
            <mxPoint x="254.06" y="561" as="targetPoint" />
          </mxGeometry>
        </mxCell>
        <mxCell id="d4Aca1u6HOUoMToGAWtU-20" style="edgeStyle=orthogonalEdgeStyle;rounded=0;orthogonalLoop=1;jettySize=auto;html=1;exitX=0;exitY=0;exitDx=175;exitDy=30;exitPerimeter=0;" parent="1" edge="1">
          <mxGeometry relative="1" as="geometry">
            <Array as="points">
              <mxPoint x="196.06" y="300" />
              <mxPoint x="261.06" y="300" />
            </Array>
            <mxPoint x="261.06" y="310" as="targetPoint" />
            <mxPoint x="196.06" y="290" as="sourcePoint" />
          </mxGeometry>
        </mxCell>
        <mxCell id="d4Aca1u6HOUoMToGAWtU-22" style="edgeStyle=orthogonalEdgeStyle;rounded=0;orthogonalLoop=1;jettySize=auto;html=1;exitX=0;exitY=0;exitDx=240;exitDy=25;exitPerimeter=0;entryX=0;entryY=0.5;entryDx=0;entryDy=0;entryPerimeter=0;" parent="1" source="wPGymhWY9zPTNBUGQzJ1-4" target="rMWVGPfARK4X7Arb33Px-1" edge="1">
          <mxGeometry relative="1" as="geometry" />
        </mxCell>
        <mxCell id="d4Aca1u6HOUoMToGAWtU-23" style="edgeStyle=orthogonalEdgeStyle;rounded=0;orthogonalLoop=1;jettySize=auto;html=1;exitX=0;exitY=0.5;exitDx=0;exitDy=0;entryX=0;entryY=0;entryDx=240;entryDy=25;entryPerimeter=0;" parent="1" edge="1">
          <mxGeometry relative="1" as="geometry">
            <mxPoint x="400" y="588" as="sourcePoint" />
            <mxPoint x="364.05999999999995" y="588" as="targetPoint" />
          </mxGeometry>
        </mxCell>
        <mxCell id="d4Aca1u6HOUoMToGAWtU-24" value="&lt;font style=&quot;font-size: 12px;&quot;&gt;Ensuring functions return void&lt;/font&gt;" style="rounded=0;whiteSpace=wrap;html=1;fillColor=#ffe6cc;strokeColor=#d79b00;fontSize=11;" parent="1" vertex="1">
          <mxGeometry x="191.06" y="405" width="170" height="20" as="geometry" />
        </mxCell>
        <mxCell id="d4Aca1u6HOUoMToGAWtU-26" value="&lt;font style=&quot;font-size: 12px;&quot;&gt;Constant Folding+Propagation&lt;/font&gt;" style="rounded=0;whiteSpace=wrap;html=1;fillColor=#ffe6cc;strokeColor=#d79b00;fontSize=11;" parent="1" vertex="1">
          <mxGeometry x="191.06" y="385" width="170" height="20" as="geometry" />
        </mxCell>
        <mxCell id="d4Aca1u6HOUoMToGAWtU-27" value="&lt;font style=&quot;font-size: 12px;&quot;&gt;Array and struct flattening&lt;/font&gt;" style="rounded=0;whiteSpace=wrap;html=1;fillColor=#ffe6cc;strokeColor=#d79b00;fontSize=11;" parent="1" vertex="1">
          <mxGeometry x="191.06" y="365" width="170" height="20" as="geometry" />
        </mxCell>
        <mxCell id="d4Aca1u6HOUoMToGAWtU-28" value="&lt;font style=&quot;font-size: 12px;&quot;&gt;Loop Canonization&lt;/font&gt;" style="rounded=0;whiteSpace=wrap;html=1;fillColor=#ffe6cc;strokeColor=#d79b00;fontSize=11;" parent="1" vertex="1">
          <mxGeometry x="191.06" y="345" width="170" height="20" as="geometry" />
        </mxCell>
        <mxCell id="d4Aca1u6HOUoMToGAWtU-29" value="&lt;font style=&quot;font-size: 13px;&quot;&gt;Preprocessing &lt;br style=&quot;font-size: 13px;&quot;&gt;Transformations&lt;/font&gt;" style="text;html=1;align=center;verticalAlign=middle;resizable=0;points=[];autosize=1;strokeColor=none;fillColor=none;rotation=-90;fontSize=13;" parent="1" vertex="1">
          <mxGeometry x="105" y="365" width="120" height="40" as="geometry" />
        </mxCell>
        <mxCell id="d4Aca1u6HOUoMToGAWtU-30" style="edgeStyle=orthogonalEdgeStyle;rounded=0;orthogonalLoop=1;jettySize=auto;html=1;entryX=0.995;entryY=0.192;entryDx=0;entryDy=0;entryPerimeter=0;" parent="1" edge="1">
          <mxGeometry relative="1" as="geometry">
            <mxPoint x="130" y="365" as="sourcePoint" />
            <mxPoint x="109.52499999999998" y="365.00000000000006" as="targetPoint" />
            <Array as="points">
              <mxPoint x="130" y="365.48" />
            </Array>
          </mxGeometry>
        </mxCell>
        <mxCell id="d4Aca1u6HOUoMToGAWtU-36" style="edgeStyle=orthogonalEdgeStyle;rounded=0;orthogonalLoop=1;jettySize=auto;html=1;exitX=0;exitY=0;exitDx=0;exitDy=15;exitPerimeter=0;" parent="1" source="wPGymhWY9zPTNBUGQzJ1-4" edge="1">
          <mxGeometry relative="1" as="geometry">
            <mxPoint x="110" y="475" as="targetPoint" />
          </mxGeometry>
        </mxCell>
        <mxCell id="d4Aca1u6HOUoMToGAWtU-37" style="edgeStyle=orthogonalEdgeStyle;rounded=0;orthogonalLoop=1;jettySize=auto;html=1;exitX=0;exitY=0;exitDx=0;exitDy=15;exitPerimeter=0;" parent="1" edge="1">
          <mxGeometry relative="1" as="geometry">
            <mxPoint x="110" y="528" as="targetPoint" />
            <mxPoint x="124.05999999999995" y="528" as="sourcePoint" />
          </mxGeometry>
        </mxCell>
        <mxCell id="d4Aca1u6HOUoMToGAWtU-40" value="" style="rounded=0;whiteSpace=wrap;html=1;fillColor=#dae8fc;strokeColor=#6c8ebf;align=left;fontSize=13;" parent="1" vertex="1">
          <mxGeometry x="400" y="200" width="20" height="20" as="geometry" />
        </mxCell>
        <mxCell id="d4Aca1u6HOUoMToGAWtU-41" value="Clava extensions (NPM packages)" style="text;html=1;strokeColor=none;fillColor=none;align=left;verticalAlign=middle;whiteSpace=wrap;rounded=0;fontSize=13;" parent="1" vertex="1">
          <mxGeometry x="429" y="197.5" width="116" height="25" as="geometry" />
        </mxCell>
        <mxCell id="d4Aca1u6HOUoMToGAWtU-42" value="" style="rounded=0;whiteSpace=wrap;html=1;fillColor=#fff2cc;strokeColor=#d6b656;align=left;fontSize=13;" parent="1" vertex="1">
          <mxGeometry x="400" y="280" width="20" height="20" as="geometry" />
        </mxCell>
        <mxCell id="d4Aca1u6HOUoMToGAWtU-43" value="Application Source Code" style="text;html=1;strokeColor=none;fillColor=none;align=left;verticalAlign=middle;whiteSpace=wrap;rounded=0;fontSize=13;" parent="1" vertex="1">
          <mxGeometry x="429" y="277.5" width="156" height="25" as="geometry" />
        </mxCell>
        <mxCell id="d4Aca1u6HOUoMToGAWtU-44" value="Intermediate Artifacts" style="text;html=1;strokeColor=none;fillColor=none;align=left;verticalAlign=middle;whiteSpace=wrap;rounded=0;fontSize=13;" parent="1" vertex="1">
          <mxGeometry x="429" y="317.5" width="136" height="25" as="geometry" />
        </mxCell>
        <mxCell id="d4Aca1u6HOUoMToGAWtU-45" value="" style="rounded=0;whiteSpace=wrap;html=1;fillColor=#d5e8d4;strokeColor=#82b366;align=left;fontSize=13;" parent="1" vertex="1">
          <mxGeometry x="400.22" y="160.5" width="20" height="20" as="geometry" />
        </mxCell>
        <mxCell id="d4Aca1u6HOUoMToGAWtU-46" value="Clava Source-to-Source Compiler" style="text;html=1;strokeColor=none;fillColor=none;align=left;verticalAlign=middle;whiteSpace=wrap;rounded=0;fontSize=13;" parent="1" vertex="1">
          <mxGeometry x="429" y="158" width="146" height="25" as="geometry" />
        </mxCell>
        <mxCell id="zoL8zQpxSu9de9vwSaM2-1" value="&lt;font style=&quot;font-size: 12px;&quot;&gt;Outlining code regions&lt;/font&gt;" style="rounded=0;whiteSpace=wrap;html=1;fillColor=#ffe6cc;strokeColor=#d79b00;fontSize=11;" parent="1" vertex="1">
          <mxGeometry x="191.06" y="425" width="170" height="20" as="geometry" />
        </mxCell>
        <mxCell id="uZdSeVqPh_KYlumVynNW-4" value="" style="rounded=0;whiteSpace=wrap;html=1;fillColor=#f8cecc;strokeColor=#b85450;align=left;fontSize=13;" parent="1" vertex="1">
          <mxGeometry x="400" y="240" width="20" height="20" as="geometry" />
        </mxCell>
        <mxCell id="uZdSeVqPh_KYlumVynNW-5" value="External dependencies" style="text;html=1;strokeColor=none;fillColor=none;align=left;verticalAlign=middle;whiteSpace=wrap;rounded=0;fontSize=13;" parent="1" vertex="1">
          <mxGeometry x="429" y="237.5" width="156" height="25" as="geometry" />
        </mxCell>
        <mxCell id="uZdSeVqPh_KYlumVynNW-7" value="" style="rounded=0;whiteSpace=wrap;html=1;fillColor=#e1d5e7;strokeColor=#9673a6;align=left;fontSize=13;" parent="1" vertex="1">
          <mxGeometry x="400" y="320" width="20" height="20" as="geometry" />
        </mxCell>
        <mxCell id="uZdSeVqPh_KYlumVynNW-9" style="edgeStyle=orthogonalEdgeStyle;rounded=0;orthogonalLoop=1;jettySize=auto;html=1;exitX=0;exitY=0;exitDx=0;exitDy=15;exitPerimeter=0;" parent="1" edge="1">
          <mxGeometry relative="1" as="geometry">
            <mxPoint x="110" y="582.73" as="targetPoint" />
            <mxPoint x="124" y="582.73" as="sourcePoint" />
          </mxGeometry>
        </mxCell>
        <mxCell id="Woon1ckqIakj2TTkOYpj-1" value="&lt;span style=&quot;font-size: 12px;&quot;&gt;Statement decomposition&lt;/span&gt;" style="rounded=0;whiteSpace=wrap;html=1;fillColor=#ffe6cc;strokeColor=#d79b00;fontSize=11;" parent="1" vertex="1">
          <mxGeometry x="191.06" y="325" width="170" height="20" as="geometry" />
        </mxCell>
        <mxCell id="Woon1ckqIakj2TTkOYpj-2" value="Vitis HLS" style="text;html=1;strokeColor=#b85450;fillColor=#f8cecc;align=center;verticalAlign=middle;whiteSpace=wrap;rounded=0;" parent="1" vertex="1">
          <mxGeometry x="402.17" y="520" width="80" height="30" as="geometry" />
        </mxCell>
        <mxCell id="Woon1ckqIakj2TTkOYpj-3" style="edgeStyle=orthogonalEdgeStyle;rounded=0;orthogonalLoop=1;jettySize=auto;html=1;exitX=0;exitY=0.5;exitDx=0;exitDy=0;entryX=0;entryY=0;entryDx=240;entryDy=25;entryPerimeter=0;startArrow=classic;startFill=1;" parent="1" source="Woon1ckqIakj2TTkOYpj-2" target="d4Aca1u6HOUoMToGAWtU-10" edge="1">
          <mxGeometry relative="1" as="geometry" />
        </mxCell>
        <mxCell id="Woon1ckqIakj2TTkOYpj-4" value="" style="endArrow=classic;html=1;rounded=0;" parent="1" edge="1">
          <mxGeometry width="50" height="50" relative="1" as="geometry">
            <mxPoint x="320" y="620" as="sourcePoint" />
            <mxPoint x="320" y="640" as="targetPoint" />
          </mxGeometry>
        </mxCell>
        <mxCell id="Woon1ckqIakj2TTkOYpj-6" value="" style="endArrow=classic;html=1;rounded=0;" parent="1" edge="1">
          <mxGeometry width="50" height="50" relative="1" as="geometry">
            <mxPoint x="169.86" y="620" as="sourcePoint" />
            <mxPoint x="170" y="640" as="targetPoint" />
          </mxGeometry>
        </mxCell>
      </root>
    </mxGraphModel>
  </diagram>
</mxfile>
